<svg width="56" height="56" viewBox="0 0 56 56" fill="none" xmlns="http://www.w3.org/2000/svg">
<rect x="2.98451" y="6.87709" width="46.067" height="46.067" rx="23.0335" stroke="white" stroke-width="1.02371"/>
<g filter="url(#filter0_f_106_396)">
<rect x="5.03139" y="4.82973" width="46.067" height="46.067" rx="23.0335" stroke="white" stroke-width="1.02371"/>
</g>
<path d="M28.9208 21.9419C28.7164 22.3081 28.5342 22.6862 28.3752 23.0743C26.8133 22.8273 25.2222 22.8273 23.6603 23.0743C23.5013 22.6862 23.3191 22.3081 23.1147 21.9419C21.6434 22.1933 20.213 22.6435 18.863 23.2802C16.4488 26.7642 15.354 30.9939 15.7746 35.2117C17.3479 36.3944 19.1136 37.2964 20.994 37.878C21.4221 37.3124 21.8043 36.7134 22.1367 36.0867C21.5232 35.8605 20.9335 35.5743 20.3763 35.2323C20.5291 35.1306 20.6737 35.017 20.8087 34.8925C22.4336 35.6753 24.2141 36.0817 26.0178 36.0817C27.8214 36.0817 29.6019 35.6753 31.2268 34.8925C31.371 35.0161 31.5151 35.1293 31.6592 35.2323C31.0989 35.5716 30.5099 35.861 29.8988 36.097C30.2175 36.7379 30.5894 37.3509 31.0107 37.9295C32.8887 37.3499 34.6514 36.4476 36.2197 35.2631C36.6504 31.0446 35.5547 26.8114 33.1313 23.3317C31.7965 22.6818 30.3803 22.2144 28.9208 21.9419V21.9419ZM22.5999 32.8027C22.0848 32.7657 21.604 32.5306 21.2585 32.1467C20.913 31.7628 20.7296 31.26 20.7469 30.7438C20.727 30.2269 20.9094 29.7227 21.2555 29.3382C21.6015 28.9537 22.0838 28.7193 22.5999 28.6849C23.1161 28.7193 23.5984 28.9537 23.9444 29.3382C24.2904 29.7227 24.4729 30.2269 24.453 30.7438C24.4729 31.2607 24.2904 31.7649 23.9444 32.1494C23.5984 32.5339 23.1161 32.7683 22.5999 32.8027V32.8027ZM29.4356 32.8027C28.9204 32.7657 28.4396 32.5306 28.0941 32.1467C27.7486 31.7628 27.5652 31.26 27.5825 30.7438C27.5626 30.2269 27.7451 29.7227 28.0911 29.3382C28.4371 28.9537 28.9195 28.7193 29.4356 28.6849C29.9526 28.7168 30.4365 28.9504 30.7831 29.3354C31.1296 29.7205 31.3112 30.2262 31.2886 30.7438C31.3112 31.2614 31.1296 31.7671 30.7831 32.1522C30.4365 32.5372 29.9526 32.7708 29.4356 32.8027V32.8027Z" fill="white"/>
<defs>
<filter id="filter0_f_106_396" x="0.424687" y="0.223027" width="55.2805" height="55.2805" filterUnits="userSpaceOnUse" color-interpolation-filters="sRGB">
<feFlood flood-opacity="0" result="BackgroundImageFix"/>
<feBlend mode="normal" in="SourceGraphic" in2="BackgroundImageFix" result="shape"/>
<feGaussianBlur stdDeviation="2.04742" result="effect1_foregroundBlur_106_396"/>
</filter>
</defs>
</svg>
