<svg width="57" height="56" viewBox="0 0 57 56" fill="none" xmlns="http://www.w3.org/2000/svg">
<rect x="3.51186" y="6.87709" width="46.067" height="46.067" rx="23.0335" stroke="white" stroke-width="1.02371"/>
<g filter="url(#filter0_f_106_389)">
<rect x="5.55873" y="4.82973" width="46.067" height="46.067" rx="23.0335" stroke="white" stroke-width="1.02371"/>
</g>
<g clip-path="url(#clip0_106_389)">
<path d="M38.6006 22.6814C37.741 23.0601 36.8175 23.3161 35.8467 23.4318C36.8484 22.8357 37.5978 21.8977 37.9551 20.7926C37.014 21.3485 35.984 21.7398 34.9099 21.9494C34.1876 21.1825 33.2309 20.6742 32.1884 20.5034C31.1458 20.3326 30.0757 20.5088 29.1442 21.0048C28.2126 21.5007 27.4718 22.2886 27.0368 23.2462C26.6017 24.2037 26.4967 25.2773 26.7381 26.3002C24.8312 26.205 22.9657 25.7121 21.2628 24.8536C19.5598 23.9951 18.0575 22.7901 16.8532 21.3168C16.4414 22.0231 16.2046 22.8421 16.2046 23.7143C16.2041 24.4995 16.3986 25.2726 16.7707 25.9652C17.1428 26.6577 17.681 27.2482 18.3377 27.6843C17.5761 27.6602 16.8314 27.4555 16.1655 27.0874V27.1489C16.1654 28.2501 16.5485 29.3175 17.2497 30.1698C17.9509 31.0222 18.9271 31.607 20.0126 31.8252C19.3062 32.0153 18.5655 32.0433 17.8466 31.9071C18.1529 32.8546 18.7494 33.6832 19.5528 34.2769C20.3562 34.8705 21.3261 35.1995 22.3268 35.2177C20.628 36.5439 18.53 37.2632 16.3703 37.26C15.9878 37.2601 15.6055 37.2379 15.2256 37.1935C17.4178 38.5951 19.9697 39.339 22.5759 39.3361C31.3984 39.3361 36.2215 32.0698 36.2215 25.7679C36.2215 25.5631 36.2163 25.3563 36.2071 25.1516C37.1452 24.4769 37.955 23.6415 38.5985 22.6844L38.6006 22.6814Z" fill="white"/>
</g>
<defs>
<filter id="filter0_f_106_389" x="0.952031" y="0.223027" width="55.2805" height="55.2805" filterUnits="userSpaceOnUse" color-interpolation-filters="sRGB">
<feFlood flood-opacity="0" result="BackgroundImageFix"/>
<feBlend mode="normal" in="SourceGraphic" in2="BackgroundImageFix" result="shape"/>
<feGaussianBlur stdDeviation="2.04742" result="effect1_foregroundBlur_106_389"/>
</filter>
<clipPath id="clip0_106_389">
<rect width="24.7071" height="24.5691" fill="white" transform="translate(14.2607 17.627)"/>
</clipPath>
</defs>
</svg>
