<svg width="33" height="33" viewBox="0 0 33 33" fill="none" xmlns="http://www.w3.org/2000/svg">
<rect x="2.39732" y="4.83702" width="25.7465" height="25.8067" rx="12.8733" fill="white" fill-opacity="0.05" stroke="white" stroke-width="0.74581"/>
<g filter="url(#filter0_f_262_2146)">
<rect x="3.54869" y="3.68272" width="25.7465" height="25.8067" rx="12.8733" stroke="white" stroke-width="0.74581"/>
</g>
<path d="M15.3093 15.9658C14.313 15.9658 13.4999 16.7807 13.4999 17.7793C13.4999 18.7779 14.313 19.5928 15.3093 19.5928C16.3057 19.5928 17.1187 18.7779 17.1187 17.7793C17.1187 16.7807 16.3057 15.9658 15.3093 15.9658ZM20.7362 17.7793C20.7362 17.0283 20.743 16.2841 20.7009 15.5345C20.6588 14.6638 20.4606 13.8911 19.8254 13.2544C19.1888 12.6163 18.4191 12.419 17.5504 12.3768C16.8011 12.3347 16.0586 12.3415 15.3107 12.3415C14.5614 12.3415 13.8189 12.3347 13.071 12.3768C12.2022 12.419 11.4312 12.6176 10.796 13.2544C10.1594 13.8924 9.96254 14.6638 9.92046 15.5345C9.87838 16.2855 9.88517 17.0297 9.88517 17.7793C9.88517 18.5289 9.87838 19.2745 9.92046 20.0241C9.96254 20.8948 10.1607 21.6676 10.796 22.3043C11.4326 22.9423 12.2022 23.1396 13.071 23.1818C13.8203 23.224 14.5628 23.2172 15.3107 23.2172C16.06 23.2172 16.8025 23.224 17.5504 23.1818C18.4191 23.1396 19.1901 22.941 19.8254 22.3043C20.462 21.6662 20.6588 20.8948 20.7009 20.0241C20.7443 19.2745 20.7362 18.5303 20.7362 17.7793V17.7793ZM15.3093 20.5697C13.7687 20.5697 12.5253 19.3235 12.5253 17.7793C12.5253 16.2352 13.7687 14.989 15.3093 14.989C16.85 14.989 18.0933 16.2352 18.0933 17.7793C18.0933 19.3235 16.85 20.5697 15.3093 20.5697ZM18.2074 15.5264C17.8477 15.5264 17.5572 15.2352 17.5572 14.8747C17.5572 14.5142 17.8477 14.223 18.2074 14.223C18.5671 14.223 18.8576 14.5142 18.8576 14.8747C18.8577 14.9603 18.8409 15.0451 18.8083 15.1242C18.7756 15.2033 18.7278 15.2752 18.6674 15.3357C18.607 15.3963 18.5352 15.4443 18.4563 15.477C18.3774 15.5097 18.2928 15.5265 18.2074 15.5264V15.5264Z" fill="white"/>
<defs>
<filter id="filter0_f_262_2146" x="0.192541" y="0.326574" width="32.4587" height="32.519" filterUnits="userSpaceOnUse" color-interpolation-filters="sRGB">
<feFlood flood-opacity="0" result="BackgroundImageFix"/>
<feBlend mode="normal" in="SourceGraphic" in2="BackgroundImageFix" result="shape"/>
<feGaussianBlur stdDeviation="1.49162" result="effect1_foregroundBlur_262_2146"/>
</filter>
</defs>
</svg>
