<svg width="57" height="56" viewBox="0 0 57 56" fill="none" xmlns="http://www.w3.org/2000/svg">
<rect x="3.51186" y="6.87709" width="46.067" height="46.067" rx="23.0335" stroke="white" stroke-width="1.02371"/>
<g filter="url(#filter0_f_401_41)">
<rect x="5.55873" y="4.82973" width="46.067" height="46.067" rx="23.0335" stroke="white" stroke-width="1.02371"/>
</g>
<g clip-path="url(#clip0_401_41)">
<path d="M38.6006 22.6811C37.741 23.0599 36.8175 23.3158 35.8467 23.4315C36.8484 22.8355 37.5978 21.8974 37.9551 20.7924C37.014 21.3482 35.984 21.7395 34.9099 21.9492C34.1876 21.1823 33.2309 20.674 32.1884 20.5032C31.1458 20.3324 30.0757 20.5086 29.1442 21.0046C28.2126 21.5005 27.4718 22.2884 27.0368 23.2459C26.6017 24.2034 26.4967 25.277 26.7381 26.3C24.8312 26.2047 22.9657 25.7119 21.2628 24.8533C19.5598 23.9948 18.0575 22.7898 16.8532 21.3165C16.4414 22.0229 16.2046 22.8419 16.2046 23.7141C16.2041 24.4992 16.3986 25.2724 16.7707 25.9649C17.1428 26.6575 17.681 27.2479 18.3377 27.684C17.5761 27.6599 16.8314 27.4553 16.1655 27.0872V27.1486C16.1654 28.2499 16.5485 29.3172 17.2497 30.1696C17.9509 31.0219 18.9271 31.6068 20.0126 31.8249C19.3062 32.015 18.5655 32.043 17.8466 31.9068C18.1529 32.8544 18.7494 33.683 19.5528 34.2766C20.3562 34.8703 21.3261 35.1993 22.3268 35.2175C20.628 36.5436 18.53 37.263 16.3703 37.2598C15.9878 37.2599 15.6055 37.2377 15.2256 37.1933C17.4178 38.5949 19.9697 39.3388 22.5759 39.3359C31.3984 39.3359 36.2215 32.0696 36.2215 25.7676C36.2215 25.5629 36.2163 25.3561 36.2071 25.1513C37.1452 24.4767 37.955 23.6413 38.5985 22.6842L38.6006 22.6811Z" fill="white"/>
</g>
<defs>
<filter id="filter0_f_401_41" x="0.952031" y="0.223027" width="55.2805" height="55.2805" filterUnits="userSpaceOnUse" color-interpolation-filters="sRGB">
<feFlood flood-opacity="0" result="BackgroundImageFix"/>
<feBlend mode="normal" in="SourceGraphic" in2="BackgroundImageFix" result="shape"/>
<feGaussianBlur stdDeviation="2.04742" result="effect1_foregroundBlur_401_41"/>
</filter>
<clipPath id="clip0_401_41">
<rect width="24.7071" height="24.5691" fill="white" transform="translate(14.2607 17.6267)"/>
</clipPath>
</defs>
</svg>
